<svg xmlns="http://www.w3.org/2000/svg"><path data-name="Union 44" d="M5.23 21.245a1.993 1.993 0 01-1.973-1.667h10.306a2.667 2.667 0 002.667-2.667V3.273a1.993 1.993 0 011.67 1.972v14a2 2 0 01-2 2zM2 18a2 2 0 01-2-2V2a2 2 0 012-2h10.667a2 2 0 012 2v14a2 2 0 01-2 2zm.667-7.167a.834.834 0 00.833.833h4.333a.833.833 0 100-1.667H3.5a.834.834 0 00-.833.833zm0-3.333a.834.834 0 00.833.833h7.667a.833.833 0 000-1.667H3.5a.834.834 0 00-.833.833zm0-3.333A.834.834 0 003.5 5h7.667a.833.833 0 000-1.667H3.5a.834.834 0 00-.833.833z"></path></svg>