<svg xmlns="http://www.w3.org/2000/svg" viewBox="0 0 12 13.714" fill="#00e0b5"><path d="M10.714 0H1.286A1.318 1.318 0 000 1.286v11.143a1.318 1.318 0 001.286 1.286h9.429A1.318 1.318 0 0012 12.429V1.286A1.318 1.318 0 0010.714 0zM3.429 11.657a.369.369 0 01-.343.343H2.057a.369.369 0 01-.343-.343v-1.028a.369.369 0 01.343-.343h1.029a.369.369 0 01.343.343zm0-3.429a.369.369 0 01-.343.343H2.057a.369.369 0 01-.343-.343V7.2a.369.369 0 01.343-.343h1.029a.369.369 0 01.343.343zm3.429 3.429a.369.369 0 01-.344.343H5.486a.369.369 0 01-.343-.343v-1.028a.369.369 0 01.343-.343h1.028a.369.369 0 01.343.343zm0-3.429a.369.369 0 01-.343.343H5.486a.369.369 0 01-.343-.343V7.2a.369.369 0 01.343-.343h1.028a.369.369 0 01.343.343zm3.429 3.429a.369.369 0 01-.344.343H8.914a.369.369 0 01-.343-.343V7.2a.369.369 0 01.343-.343h1.029a.369.369 0 01.343.343v4.457zm0-6.857a.369.369 0 01-.343.343H2.057a.369.369 0 01-.343-.343V2.057a.369.369 0 01.343-.343h7.886a.369.369 0 01.343.343z"></path></svg>