<svg xmlns="http://www.w3.org/2000/svg" viewBox="0 0 21 18.667"><path d="M20.416 8.167h-1.075a5.852 5.852 0 00-1.364-1.914l.689-2.753h-1.168a3.478 3.478 0 00-2.66 1.251 5.783 5.783 0 00-.84-.084H9.332a5.839 5.839 0 00-5.716 4.667H2.041a.876.876 0 01-.857-1.05.9.9 0 01.893-.7h.036a.219.219 0 00.219-.219v-.729a.219.219 0 00-.219-.219 2.089 2.089 0 00-2.1 1.772A2.043 2.043 0 002.041 10.5h1.457a5.81 5.81 0 002.333 4.641v2.942a.585.585 0 00.583.583h2.335a.585.585 0 00.583-.583v-1.75h4.666v1.75a.585.585 0 00.583.583h2.333a.585.585 0 00.583-.583v-2.941A5.834 5.834 0 0018.641 14h1.776a.585.585 0 00.581-.583V8.75a.585.585 0 00-.582-.583zM15.749 10.5a.583.583 0 11.583-.583.585.585 0 01-.583.583zm-6.417-7h4.666c.2 0 .39.015.58.029V3.5a3.5 3.5 0 00-7 0c0 .077.018.149.022.226A6.931 6.931 0 019.332 3.5z"></path></svg>