<svg xmlns="http://www.w3.org/2000/svg" viewBox="0 0 22.071 22.069"><path stroke="rgba(0,0,0,0)" stroke-miterlimit="10" d="M.5 10.894A10.6 10.6 0 019.424.515a.845.845 0 011.01.858v2.729a.87.87 0 01-.685.848 6.184 6.184 0 00-4.829 6.282 6.2 6.2 0 005.925 5.919 6.15 6.15 0 003.566-.959.871.871 0 011.085.118l1.919 1.919a.869.869 0 01-.1 1.316 10.48 10.48 0 01-6.015 2.023h-.2A10.621 10.621 0 01.5 10.894zm17.851 6.4l-1.921-1.923a.868.868 0 01-.118-1.082 6.118 6.118 0 00.812-1.972.868.868 0 01.848-.682h2.727a.869.869 0 01.86 1 10.412 10.412 0 01-1.9 4.561.859.859 0 01-.7.351.869.869 0 01-.608-.253zm-.374-6.982a.875.875 0 01-.854-.68 6.172 6.172 0 00-4.686-4.684.869.869 0 01-.678-.851V1.38a.878.878 0 011.017-.865 10.6 10.6 0 018.78 8.78.878.878 0 01-.865 1.017z"></path></svg>