<svg xmlns="http://www.w3.org/2000/svg" viewBox="0 0 21.016 20.421"><path d="M3.297 18.053L.11 6.248a3.142 3.142 0 01.314-2.4 3.18 3.18 0 011.948-1.5h.006L10.8.111a3.207 3.207 0 013.933 2.245l3.182 11.808a3.143 3.143 0 01-.313 2.4 3.18 3.18 0 01-1.948 1.5h-.01l-8.422 2.245a3.207 3.207 0 01-3.929-2.25zM7.979 6.37a.442.442 0 00-.321.364L7.315 9.12l-2.27.828a.439.439 0 00-.041.809l2.17 1.069.1 2.411a.443.443 0 00.284.4.448.448 0 00.273.015.434.434 0 00.2-.12l1.682-1.728 2.326.659a.428.428 0 00.235 0 .449.449 0 00.23-.149.436.436 0 00.046-.483l-1.13-2.138 1.343-2a.442.442 0 000-.485.448.448 0 00-.448-.2l-2.382.407-1.49-1.889a.446.446 0 00-.351-.169.453.453 0 00-.113.013zm11.475 6.716L16.821 3.25l1.818.488a3.207 3.207 0 012.268 3.928l-1.451 5.42z"></path></svg>