<svg xmlns="http://www.w3.org/2000/svg" viewBox="0 0 18.437 17.348" fill="#00e0b5"><path data-name="Path 4940" d="M18.4 6.339a2.708 2.708 0 00-2.761-2.592c-4.336.028-8.672.01-13.008.01a1.519 1.519 0 01-.625-.076c-.173-.075-.362-.14-.364-.373s.181-.309.357-.377a1.915 1.915 0 01.7-.1h13.196c.1 0 .223-.023.226-.146a2.975 2.975 0 00-.38-2.182 1.809 1.809 0 00-1.76-.468c-2.06.229-4.116.486-6.175.724-1.985.23-3.971.448-5.956.676A1.977 1.977 0 00.011 3.507c0 3.676.026 7.352-.013 11.027a2.723 2.723 0 002.818 2.813c2.13-.022 4.261-.005 6.392-.006 2.181 0 4.361.006 6.542 0a2.623 2.623 0 002.621-2.295c.106-2.907.06-5.807.029-8.707zm-8.7 9.433v-1.046a4.193 4.193 0 10-3.332-1.66l.748-.739a3.138 3.138 0 112.58 1.35v-1.046a2.092 2.092 0 10-2.09-2.092 2.071 2.071 0 00.279 1.042l.779-.761a1.059 1.059 0 011.034-1.354 1.075 1.075 0 011.075 1.073 1.075 1.075 0 01-1.076 1.074 1.059 1.059 0 01-.3-.049l-2.7 2.634a.506.506 0 01-.082.065l-.024.013a.6.6 0 01-.066.034c-.012 0-.024.007-.037.011a.52.52 0 01-.059.017.136.136 0 01-.042 0h-.055a.526.526 0 01-.056-.006.14.14 0 00-.043 0 .557.557 0 01-.058-.018c-.013 0-.027-.007-.04-.013a.52.52 0 01-.057-.03l-.034-.019a.541.541 0 01-.054-.045.346.346 0 01-.028-.023 5.224 5.224 0 113.741 1.578z"></path></svg>