<svg xmlns="http://www.w3.org/2000/svg" viewBox="0 0 22 19"><g data-name="Group 11226"><path data-name="Union 42" d="M13.725 19.334a12.054 12.054 0 01-4.017-1.049 2.043 2.043 0 01-1.3-1.992c.02-.327.051-.661.5-.283a8.728 8.728 0 005.1 1.651 13.931 13.931 0 006.143-.708 6 6 0 001.831-1.084c.439 1.192.241 1.76-.832 2.362a8.968 8.968 0 01-3.435.977c-.287.032-.572.084-.858.126zm-6.416-2.1a11.6 11.6 0 01-5.833-1.29c-.989-.589-1.12-1.048-.779-2.328 1.759 1.642 3.988 1.769 6.184 1.9.826.05 1.112.318 1.024 1.106-.042.381-.184.61-.572.61zm2.706-1.648a2.232 2.232 0 01-1.5-2.84c2.917 2.7 9.2 2.8 13.523.3.352 1.139.192 1.572-.842 2.242a7.968 7.968 0 01-3.606 1.08 23.389 23.389 0 01-2.433.137 13.583 13.583 0 01-5.143-.919zM1.89 13.317a1.951 1.951 0 01-1.354-2.123c.066-.364.195-.476.5-.225 1.692 1.393 3.73 1.573 5.793 1.631.627.016 1.076.112 1.089.9.012.849-.448.827-.9.8a1.74 1.74 0 00-.459.017 11.927 11.927 0 01-4.669-1zm7.95-.743c-.669-.317-1.314-.676-1.332-1.52-.02-.9.68-1.293 1.371-1.592a14.7 14.7 0 017.57-.866 9.119 9.119 0 013.544.971c.569.319 1.154.661 1.205 1.414.058.83-.553 1.22-1.159 1.533a11.7 11.7 0 01-5.973 1.021c-.222.013-.448.019-.678.019a10.66 10.66 0 01-4.549-.98zm-8.163-2.323C.593 9.651.386 9.187.69 7.866c1.86 1.721 4.219 1.712 6.49 2 .367.046.807-.094.752.571-.044.539-.073.93-.784.948q-.227.005-.452.006a10.065 10.065 0 01-5.02-1.14zm2.361-2.012a10.493 10.493 0 01-2.631-1c-.925-.443-.97-1.287-.8-2.284a9.565 9.565 0 006.844 1.921c2.345-.09 4.84-.008 6.785-2.014a2.113 2.113 0 01-1.326 2.69 13.4 13.4 0 01-4.157.914c-.486.018-.969.031-1.451.031a18.229 18.229 0 01-3.265-.258zm-1.6-3.343a4.558 4.558 0 01-1.053-.5c-1.152-.783-1.123-1.75.034-2.548a7.438 7.438 0 013.1-1.1 15.275 15.275 0 018.05.634 2.6 2.6 0 01.365.137c.662.377 1.382.815 1.372 1.637-.011.783-.695 1.2-1.377 1.5a16.105 16.105 0 01-5.57 1.064 19.227 19.227 0 01-4.921-.824z" stroke="rgba(0,0,0,0)" stroke-miterlimit="10"></path></g></svg>