<svg class="menu__icon" xmlns="http://www.w3.org/2000/svg" viewBox="0 0 19 19" fill="#ffffff"><path d="M15.04 19a.792.792 0 01-.792-.792v-3.167a.793.793 0 01.792-.793h3.167a.794.794 0 01.793.793v3.167a.792.792 0 01-.793.792zm-7.123 0a.792.792 0 01-.793-.792v-3.167a.794.794 0 01.793-.793h3.167a.794.794 0 01.792.793v3.167a.792.792 0 01-.792.792zM.792 19A.792.792 0 010 18.208v-3.167a.793.793 0 01.792-.793h3.167a.794.794 0 01.793.793v3.167a.793.793 0 01-.793.792zm14.248-7.125a.792.792 0 01-.792-.792V7.916a.792.792 0 01.792-.792h3.167a.792.792 0 01.793.792v3.167a.792.792 0 01-.793.792zm-7.123 0a.792.792 0 01-.793-.792V7.916a.792.792 0 01.793-.792h3.167a.792.792 0 01.792.792v3.167a.792.792 0 01-.792.792zm-7.125 0A.792.792 0 010 11.083V7.916a.792.792 0 01.792-.792h3.167a.793.793 0 01.793.792v3.167a.793.793 0 01-.793.792zM15.04 4.752a.792.792 0 01-.792-.792V.792a.792.792 0 01.792-.793h3.167A.793.793 0 0119 .792V3.96a.792.792 0 01-.793.792zm-7.123 0a.792.792 0 01-.793-.792V.792a.793.793 0 01.793-.793h3.167a.793.793 0 01.792.793V3.96a.792.792 0 01-.792.792zm-7.125 0A.792.792 0 010 3.96V.792a.792.792 0 01.792-.793h3.167a.793.793 0 01.793.793V3.96a.793.793 0 01-.793.792z"></path></svg>