<svg xmlns="http://www.w3.org/2000/svg" viewBox="0 0 20.771 28.419"><path d="M1.45 26.341a1.5 1.5 0 01-1.06-1.84l2-7.54a1.5 1.5 0 011.84-1.06l3.41.91c-.54-.62-7.53-9-7.54-9a.53.53 0 01-.08-.26C-.2 4.761 1.4 2.091 4.69.771a13 13 0 0114.33 3.83c2.2 2.8 2.23 5.92.63 8.21a.74.74 0 01-.13.12c-.12.09-11.11 4.09-11.15 4.09l3.42.92a1.5 1.5 0 011.06 1.84l-2 7.54a1.51 1.51 0 01-1.83 1.05zm6.17-17.49l.94 6 3.84-4.7a2.66 2.66 0 00-2-2 2.66 2.66 0 00-2.76.74zm2.26 6.24l8.6-3a2.61 2.61 0 00-2.05-2.41 2.66 2.66 0 00-2.87.87zm-8.53-7.54l6 6.85c-.65-4-.92-5.72-.92-5.72a2.69 2.69 0 00-2.05-2.2 2.6 2.6 0 00-3 1.07zm15.91 1.33a4.47 4.47 0 011.13.68 5.5 5.5 0 01.9 1.08v-.14a5.32 5.32 0 00-.13-3.11 8 8 0 00-2.27-3.37 8.55 8.55 0 00-2.11-1.48 11.26 11.26 0 00-2.63-1h-.05a10.55 10.55 0 00-2.74-.4 10.84 10.84 0 00-2.48.2c-4.86.87-5.48 4.51-5.48 4.51a4.74 4.74 0 012.48-.53 4 4 0 01.75.14 5.26 5.26 0 011.59.79l.22.19a14.4 14.4 0 011.16 1 4.38 4.38 0 015.55 1.49 14.55 14.55 0 011.47-.25h.19a6 6 0 012 .15l.4.13z"></path></svg>