<svg xmlns="http://www.w3.org/2000/svg" viewBox="0 0 20.614 21" fill="#00e0b5"><path d="M14.808 20.8l-4.461-3.845c-.512-.428-.164-1.171.555-1.17l2.854.008-.025-8.282a1.494 1.494 0 011.591-1.375 1.516 1.516 0 011.6 1.384l.024 8.282 2.871.008c.7 0 1.072.747.562 1.174L15.94 20.8a.888.888 0 01-.563.2.9.9 0 01-.569-.2zm-9.53-5.93a1.513 1.513 0 01-1.6-1.383l-.025-8.3-2.855-.008c-.7 0-1.07-.747-.561-1.174L4.675.187a.877.877 0 011.117.017l4.46 3.845c.512.429.163 1.172-.554 1.17l-2.855-.008.025 8.283a1.491 1.491 0 01-1.584 1.373z"></path></svg>